<mxfile host="Electron" modified="2023-05-23T17:48:37.476Z" agent="Mozilla/5.0 (X11; Linux x86_64) AppleWebKit/537.36 (KHTML, like Gecko) draw.io/21.2.8 Chrome/112.0.5615.165 Electron/24.2.0 Safari/537.36" etag="a1nNGVzZAtsCkSz81oAm" version="21.2.8" type="device">
  <diagram id="prtHgNgQTEPvFCAcTncT" name="Page-1">
    <mxGraphModel dx="1380" dy="2051" grid="1" gridSize="10" guides="1" tooltips="1" connect="1" arrows="1" fold="1" page="1" pageScale="1" pageWidth="827" pageHeight="1169" math="0" shadow="0">
      <root>
        <mxCell id="0" />
        <mxCell id="1" parent="0" />
        <mxCell id="GBJZiCLwSqrYyyE4BXPx-136" style="edgeStyle=orthogonalEdgeStyle;orthogonalLoop=1;jettySize=auto;html=1;strokeColor=default;rounded=0;entryX=0.5;entryY=1;entryDx=0;entryDy=0;endArrow=none;fontSize=12;fontColor=#000000;comic=0;endFill=0;startFill=1;" parent="1" source="GBJZiCLwSqrYyyE4BXPx-10" target="GBJZiCLwSqrYyyE4BXPx-134" edge="1">
          <mxGeometry relative="1" as="geometry" />
        </mxCell>
        <mxCell id="GBJZiCLwSqrYyyE4BXPx-2" value="" style="edgeStyle=orthogonalEdgeStyle;rounded=0;orthogonalLoop=1;jettySize=auto;html=1;endArrow=none;fontSize=12;fontColor=#000000;comic=0;endFill=0;startFill=1;" parent="1" source="GBJZiCLwSqrYyyE4BXPx-10" target="GBJZiCLwSqrYyyE4BXPx-11" edge="1">
          <mxGeometry relative="1" as="geometry" />
        </mxCell>
        <mxCell id="GBJZiCLwSqrYyyE4BXPx-5" style="edgeStyle=orthogonalEdgeStyle;rounded=0;orthogonalLoop=1;jettySize=auto;html=1;entryX=0.5;entryY=1;entryDx=0;entryDy=0;fontFamily=Helvetica;fontSize=12;fontColor=#000000;comic=0;enumerate=0;orthogonal=0;ignoreEdge=0;flowAnimation=0;noJump=0;backgroundOutline=0;anchorPointDirection=1;endFill=0;startFill=1;endArrow=none;" parent="1" source="GBJZiCLwSqrYyyE4BXPx-10" target="GBJZiCLwSqrYyyE4BXPx-74" edge="1">
          <mxGeometry relative="1" as="geometry" />
        </mxCell>
        <mxCell id="GBJZiCLwSqrYyyE4BXPx-6" value="" style="edgeStyle=orthogonalEdgeStyle;rounded=0;orthogonalLoop=1;jettySize=auto;html=1;fontFamily=Helvetica;fontSize=12;fontColor=#000000;endArrow=none;comic=0;endFill=0;startFill=1;" parent="1" source="GBJZiCLwSqrYyyE4BXPx-10" target="GBJZiCLwSqrYyyE4BXPx-76" edge="1">
          <mxGeometry relative="1" as="geometry" />
        </mxCell>
        <mxCell id="GBJZiCLwSqrYyyE4BXPx-240" style="edgeStyle=orthogonalEdgeStyle;shape=connector;rounded=0;orthogonalLoop=1;jettySize=auto;html=1;entryX=0.5;entryY=1;entryDx=0;entryDy=0;labelBackgroundColor=default;strokeColor=default;fontFamily=Helvetica;fontSize=11;fontColor=default;endArrow=none;endFill=0;" parent="1" source="GBJZiCLwSqrYyyE4BXPx-10" target="GBJZiCLwSqrYyyE4BXPx-12" edge="1">
          <mxGeometry relative="1" as="geometry" />
        </mxCell>
        <mxCell id="GBJZiCLwSqrYyyE4BXPx-10" value="Person" style="rounded=1;arcSize=10;whiteSpace=wrap;html=1;align=center;" parent="1" vertex="1">
          <mxGeometry x="420" y="-809" width="140" height="50" as="geometry" />
        </mxCell>
        <mxCell id="GBJZiCLwSqrYyyE4BXPx-11" value="name" style="ellipse;whiteSpace=wrap;html=1;rounded=1;arcSize=10;" parent="1" vertex="1">
          <mxGeometry x="400" y="-989" width="80" height="80" as="geometry" />
        </mxCell>
        <mxCell id="GBJZiCLwSqrYyyE4BXPx-12" value="surname" style="ellipse;whiteSpace=wrap;html=1;rounded=1;arcSize=10;" parent="1" vertex="1">
          <mxGeometry x="500" y="-989" width="80" height="80" as="geometry" />
        </mxCell>
        <mxCell id="GBJZiCLwSqrYyyE4BXPx-203" style="edgeStyle=orthogonalEdgeStyle;rounded=0;orthogonalLoop=1;jettySize=auto;html=1;entryX=0.25;entryY=1;entryDx=0;entryDy=0;fontSize=14;" parent="1" source="GBJZiCLwSqrYyyE4BXPx-18" target="GBJZiCLwSqrYyyE4BXPx-10" edge="1">
          <mxGeometry relative="1" as="geometry">
            <Array as="points">
              <mxPoint x="110" y="-559" />
              <mxPoint x="455" y="-559" />
            </Array>
          </mxGeometry>
        </mxCell>
        <mxCell id="GBJZiCLwSqrYyyE4BXPx-207" style="edgeStyle=orthogonalEdgeStyle;rounded=0;orthogonalLoop=1;jettySize=auto;html=1;fontSize=12;entryX=0;entryY=0.5;entryDx=0;entryDy=0;endArrow=none;fontColor=#000000;comic=0;endFill=0;startFill=1;" parent="1" source="GBJZiCLwSqrYyyE4BXPx-18" target="GBJZiCLwSqrYyyE4BXPx-89" edge="1">
          <mxGeometry relative="1" as="geometry">
            <mxPoint x="1360" y="161" as="targetPoint" />
            <Array as="points">
              <mxPoint x="80" y="161" />
            </Array>
          </mxGeometry>
        </mxCell>
        <mxCell id="GBJZiCLwSqrYyyE4BXPx-211" style="edgeStyle=orthogonalEdgeStyle;rounded=0;orthogonalLoop=1;jettySize=auto;html=1;entryX=0.5;entryY=0;entryDx=0;entryDy=0;fontSize=12;endArrow=none;fontColor=#000000;comic=0;endFill=0;startFill=1;" parent="1" source="GBJZiCLwSqrYyyE4BXPx-18" target="GBJZiCLwSqrYyyE4BXPx-35" edge="1">
          <mxGeometry relative="1" as="geometry">
            <Array as="points">
              <mxPoint x="140" y="-180" />
              <mxPoint x="140" y="-180" />
            </Array>
          </mxGeometry>
        </mxCell>
        <mxCell id="GBJZiCLwSqrYyyE4BXPx-18" value="Viewer" style="whiteSpace=wrap;html=1;rounded=1;arcSize=10;" parent="1" vertex="1">
          <mxGeometry x="50" y="-259" width="120" height="60" as="geometry" />
        </mxCell>
        <mxCell id="GBJZiCLwSqrYyyE4BXPx-22" value="" style="edgeStyle=orthogonalEdgeStyle;rounded=0;orthogonalLoop=1;jettySize=auto;html=1;endArrow=none;fontSize=12;fontColor=#000000;comic=0;endFill=0;startFill=1;" parent="1" source="GBJZiCLwSqrYyyE4BXPx-25" target="GBJZiCLwSqrYyyE4BXPx-27" edge="1">
          <mxGeometry relative="1" as="geometry" />
        </mxCell>
        <mxCell id="GBJZiCLwSqrYyyE4BXPx-204" style="edgeStyle=orthogonalEdgeStyle;rounded=0;orthogonalLoop=1;jettySize=auto;html=1;entryX=0.75;entryY=1;entryDx=0;entryDy=0;fontSize=14;" parent="1" source="GBJZiCLwSqrYyyE4BXPx-25" target="GBJZiCLwSqrYyyE4BXPx-10" edge="1">
          <mxGeometry relative="1" as="geometry" />
        </mxCell>
        <mxCell id="GBJZiCLwSqrYyyE4BXPx-241" style="edgeStyle=orthogonalEdgeStyle;shape=connector;rounded=0;orthogonalLoop=1;jettySize=auto;html=1;entryX=0.5;entryY=0;entryDx=0;entryDy=0;labelBackgroundColor=default;strokeColor=default;fontFamily=Helvetica;fontSize=11;fontColor=default;endArrow=none;endFill=0;" parent="1" source="GBJZiCLwSqrYyyE4BXPx-25" target="GBJZiCLwSqrYyyE4BXPx-26" edge="1">
          <mxGeometry relative="1" as="geometry" />
        </mxCell>
        <mxCell id="GBJZiCLwSqrYyyE4BXPx-25" value="Staff" style="whiteSpace=wrap;html=1;rounded=1;arcSize=10;" parent="1" vertex="1">
          <mxGeometry x="635" y="-604" width="120" height="60" as="geometry" />
        </mxCell>
        <mxCell id="GBJZiCLwSqrYyyE4BXPx-26" value="employeeID" style="ellipse;whiteSpace=wrap;html=1;rounded=1;arcSize=10;fillColor=#000000;fontColor=#FFFFFF;strokeColor=#FFFFFF;" parent="1" vertex="1">
          <mxGeometry x="615" y="-494" width="80" height="80" as="geometry" />
        </mxCell>
        <mxCell id="GBJZiCLwSqrYyyE4BXPx-27" value="position" style="ellipse;whiteSpace=wrap;html=1;rounded=1;arcSize=10;" parent="1" vertex="1">
          <mxGeometry x="705" y="-494" width="80" height="80" as="geometry" />
        </mxCell>
        <mxCell id="GBJZiCLwSqrYyyE4BXPx-175" style="edgeStyle=orthogonalEdgeStyle;rounded=0;orthogonalLoop=1;jettySize=auto;html=1;entryX=0.5;entryY=0;entryDx=0;entryDy=0;fontSize=12;endArrow=none;fontColor=#000000;comic=0;endFill=0;startFill=1;" parent="1" source="GBJZiCLwSqrYyyE4BXPx-34" target="GBJZiCLwSqrYyyE4BXPx-173" edge="1">
          <mxGeometry relative="1" as="geometry" />
        </mxCell>
        <mxCell id="GBJZiCLwSqrYyyE4BXPx-234" style="edgeStyle=orthogonalEdgeStyle;rounded=0;orthogonalLoop=1;jettySize=auto;html=1;entryX=0;entryY=0.5;entryDx=0;entryDy=0;fontSize=12;endArrow=none;fontColor=#000000;comic=0;endFill=0;startFill=1;" parent="1" source="GBJZiCLwSqrYyyE4BXPx-34" target="GBJZiCLwSqrYyyE4BXPx-97" edge="1">
          <mxGeometry relative="1" as="geometry">
            <Array as="points">
              <mxPoint x="1238" y="-774" />
              <mxPoint x="1365" y="-774" />
            </Array>
          </mxGeometry>
        </mxCell>
        <mxCell id="GBJZiCLwSqrYyyE4BXPx-262" style="edgeStyle=orthogonalEdgeStyle;shape=connector;rounded=0;orthogonalLoop=1;jettySize=auto;html=1;entryX=0.5;entryY=1;entryDx=0;entryDy=0;labelBackgroundColor=default;strokeColor=default;fontFamily=Helvetica;fontSize=12;fontColor=#000000;startFill=1;endArrow=none;endFill=0;" parent="1" source="GBJZiCLwSqrYyyE4BXPx-34" target="GBJZiCLwSqrYyyE4BXPx-220" edge="1">
          <mxGeometry relative="1" as="geometry" />
        </mxCell>
        <mxCell id="QPW3rp8O-pwUNaFN2-2h-4" value="" style="edgeStyle=orthogonalEdgeStyle;rounded=0;orthogonalLoop=1;jettySize=auto;html=1;endArrow=none;fontSize=12;fontColor=#000000;comic=0;endFill=0;startFill=1;" parent="1" source="GBJZiCLwSqrYyyE4BXPx-34" target="QPW3rp8O-pwUNaFN2-2h-3" edge="1">
          <mxGeometry relative="1" as="geometry" />
        </mxCell>
        <mxCell id="GBJZiCLwSqrYyyE4BXPx-34" value="Stadium" style="rounded=1;arcSize=10;whiteSpace=wrap;html=1;align=center;" parent="1" vertex="1">
          <mxGeometry x="970" y="-800" width="140" height="51" as="geometry" />
        </mxCell>
        <mxCell id="GBJZiCLwSqrYyyE4BXPx-35" value="viewerID" style="ellipse;whiteSpace=wrap;html=1;rounded=1;arcSize=10;fontColor=#FFFFFF;fillColor=#000000;strokeColor=#FFFFFF;" parent="1" vertex="1">
          <mxGeometry x="100" y="-149" width="80" height="80" as="geometry" />
        </mxCell>
        <mxCell id="GBJZiCLwSqrYyyE4BXPx-45" value="" style="edgeStyle=orthogonalEdgeStyle;rounded=0;orthogonalLoop=1;jettySize=auto;html=1;fontFamily=Helvetica;fontSize=12;fontColor=#000000;" parent="1" edge="1">
          <mxGeometry relative="1" as="geometry">
            <mxPoint x="1450" y="170" as="sourcePoint" />
          </mxGeometry>
        </mxCell>
        <mxCell id="GBJZiCLwSqrYyyE4BXPx-47" style="edgeStyle=orthogonalEdgeStyle;rounded=0;orthogonalLoop=1;jettySize=auto;html=1;entryX=0.5;entryY=0;entryDx=0;entryDy=0;fontFamily=Helvetica;fontSize=12;fontColor=#000000;" parent="1" edge="1">
          <mxGeometry relative="1" as="geometry">
            <mxPoint x="1390" y="230" as="targetPoint" />
          </mxGeometry>
        </mxCell>
        <mxCell id="GBJZiCLwSqrYyyE4BXPx-52" value="" style="edgeStyle=orthogonalEdgeStyle;rounded=0;orthogonalLoop=1;jettySize=auto;html=1;fontFamily=Helvetica;fontSize=12;fontColor=#000000;endArrow=none;comic=0;endFill=0;startFill=1;" parent="1" source="GBJZiCLwSqrYyyE4BXPx-61" target="GBJZiCLwSqrYyyE4BXPx-63" edge="1">
          <mxGeometry relative="1" as="geometry" />
        </mxCell>
        <mxCell id="GBJZiCLwSqrYyyE4BXPx-147" style="edgeStyle=orthogonalEdgeStyle;rounded=0;orthogonalLoop=1;jettySize=auto;html=1;entryX=0.5;entryY=0;entryDx=0;entryDy=0;endArrow=none;fontSize=12;fontColor=#000000;comic=0;endFill=0;startFill=1;" parent="1" source="GBJZiCLwSqrYyyE4BXPx-61" target="UaTZyN6djczCSHfW7MGq-3" edge="1">
          <mxGeometry relative="1" as="geometry">
            <Array as="points" />
            <mxPoint x="1080" y="-269" as="targetPoint" />
          </mxGeometry>
        </mxCell>
        <mxCell id="GBJZiCLwSqrYyyE4BXPx-214" style="edgeStyle=orthogonalEdgeStyle;rounded=0;orthogonalLoop=1;jettySize=auto;html=1;entryX=0.5;entryY=1;entryDx=0;entryDy=0;fontSize=12;endArrow=none;fontColor=#000000;comic=0;endFill=0;startFill=1;" parent="1" source="GBJZiCLwSqrYyyE4BXPx-61" target="GBJZiCLwSqrYyyE4BXPx-173" edge="1">
          <mxGeometry relative="1" as="geometry" />
        </mxCell>
        <mxCell id="GBJZiCLwSqrYyyE4BXPx-219" style="edgeStyle=orthogonalEdgeStyle;rounded=0;orthogonalLoop=1;jettySize=auto;html=1;entryX=0.5;entryY=0;entryDx=0;entryDy=0;fontSize=12;endArrow=none;fontColor=#000000;comic=0;endFill=0;startFill=1;" parent="1" source="GBJZiCLwSqrYyyE4BXPx-61" target="GBJZiCLwSqrYyyE4BXPx-218" edge="1">
          <mxGeometry relative="1" as="geometry" />
        </mxCell>
        <mxCell id="GBJZiCLwSqrYyyE4BXPx-231" style="edgeStyle=orthogonalEdgeStyle;rounded=0;orthogonalLoop=1;jettySize=auto;html=1;entryX=1;entryY=0.5;entryDx=0;entryDy=0;fontSize=12;endArrow=none;fontColor=#000000;comic=0;endFill=0;startFill=1;" parent="1" source="GBJZiCLwSqrYyyE4BXPx-61" target="GBJZiCLwSqrYyyE4BXPx-230" edge="1">
          <mxGeometry relative="1" as="geometry" />
        </mxCell>
        <mxCell id="UaTZyN6djczCSHfW7MGq-15" value="" style="edgeStyle=orthogonalEdgeStyle;rounded=0;orthogonalLoop=1;jettySize=auto;html=1;endArrow=none;fontSize=12;fontColor=#000000;comic=0;endFill=0;startFill=1;" parent="1" source="GBJZiCLwSqrYyyE4BXPx-61" target="UaTZyN6djczCSHfW7MGq-14" edge="1">
          <mxGeometry relative="1" as="geometry" />
        </mxCell>
        <mxCell id="GBJZiCLwSqrYyyE4BXPx-61" value="Competition" style="whiteSpace=wrap;html=1;rounded=1;arcSize=10;" parent="1" vertex="1">
          <mxGeometry x="980" y="-399" width="120" height="60" as="geometry" />
        </mxCell>
        <mxCell id="GBJZiCLwSqrYyyE4BXPx-63" value="date" style="ellipse;whiteSpace=wrap;html=1;rounded=1;arcSize=10;" parent="1" vertex="1">
          <mxGeometry x="850" y="-479" width="80" height="80" as="geometry" />
        </mxCell>
        <mxCell id="GBJZiCLwSqrYyyE4BXPx-68" style="edgeStyle=orthogonalEdgeStyle;rounded=0;orthogonalLoop=1;jettySize=auto;html=1;entryX=1;entryY=0.5;entryDx=0;entryDy=0;fontFamily=Helvetica;fontSize=12;fontColor=#000000;endArrow=none;comic=0;endFill=0;startFill=1;" parent="1" source="GBJZiCLwSqrYyyE4BXPx-70" target="GBJZiCLwSqrYyyE4BXPx-89" edge="1">
          <mxGeometry relative="1" as="geometry">
            <Array as="points">
              <mxPoint x="1470" y="160" />
              <mxPoint x="1140" y="160" />
            </Array>
          </mxGeometry>
        </mxCell>
        <mxCell id="GBJZiCLwSqrYyyE4BXPx-69" style="edgeStyle=orthogonalEdgeStyle;rounded=0;orthogonalLoop=1;jettySize=auto;html=1;fontFamily=Helvetica;fontSize=12;fontColor=#000000;entryX=1;entryY=0.5;entryDx=0;entryDy=0;endArrow=none;comic=0;endFill=0;startFill=1;" parent="1" source="GBJZiCLwSqrYyyE4BXPx-70" target="GBJZiCLwSqrYyyE4BXPx-97" edge="1">
          <mxGeometry relative="1" as="geometry">
            <mxPoint x="1360" y="-364.00000000000045" as="targetPoint" />
          </mxGeometry>
        </mxCell>
        <mxCell id="GBJZiCLwSqrYyyE4BXPx-126" value="" style="edgeStyle=orthogonalEdgeStyle;rounded=0;orthogonalLoop=1;jettySize=auto;html=1;endArrow=none;fontSize=12;fontColor=#000000;comic=0;endFill=0;startFill=1;" parent="1" source="GBJZiCLwSqrYyyE4BXPx-70" target="GBJZiCLwSqrYyyE4BXPx-125" edge="1">
          <mxGeometry relative="1" as="geometry" />
        </mxCell>
        <mxCell id="GBJZiCLwSqrYyyE4BXPx-202" style="edgeStyle=orthogonalEdgeStyle;rounded=0;orthogonalLoop=1;jettySize=auto;html=1;entryX=0.5;entryY=1;entryDx=0;entryDy=0;fontSize=12;endArrow=none;fontColor=#000000;comic=0;endFill=0;startFill=1;" parent="1" source="GBJZiCLwSqrYyyE4BXPx-70" target="GBJZiCLwSqrYyyE4BXPx-71" edge="1">
          <mxGeometry relative="1" as="geometry" />
        </mxCell>
        <mxCell id="GBJZiCLwSqrYyyE4BXPx-243" style="edgeStyle=orthogonalEdgeStyle;shape=connector;rounded=0;orthogonalLoop=1;jettySize=auto;html=1;entryX=1;entryY=0.5;entryDx=0;entryDy=0;labelBackgroundColor=default;strokeColor=default;fontFamily=Helvetica;fontSize=12;fontColor=#000000;startFill=1;endArrow=none;endFill=0;" parent="1" source="GBJZiCLwSqrYyyE4BXPx-70" target="GBJZiCLwSqrYyyE4BXPx-242" edge="1">
          <mxGeometry relative="1" as="geometry" />
        </mxCell>
        <mxCell id="GBJZiCLwSqrYyyE4BXPx-70" value="Ticket" style="whiteSpace=wrap;html=1;rounded=1;arcSize=10;" parent="1" vertex="1">
          <mxGeometry x="1405" y="-409" width="120" height="60" as="geometry" />
        </mxCell>
        <mxCell id="GBJZiCLwSqrYyyE4BXPx-71" value="cost" style="ellipse;whiteSpace=wrap;html=1;rounded=1;arcSize=10;fillColor=default;fontColor=default;" parent="1" vertex="1">
          <mxGeometry x="1480" y="-529" width="80" height="80" as="geometry" />
        </mxCell>
        <mxCell id="GBJZiCLwSqrYyyE4BXPx-74" value="email" style="ellipse;whiteSpace=wrap;html=1;rounded=1;arcSize=10;fillColor=#000000;fontColor=#FFFFFF;strokeColor=#FFFFFF;" parent="1" vertex="1">
          <mxGeometry x="600" y="-989" width="80" height="80" as="geometry" />
        </mxCell>
        <mxCell id="GBJZiCLwSqrYyyE4BXPx-76" value="Site" style="rhombus;whiteSpace=wrap;html=1;rounded=1;arcSize=10;" parent="1" vertex="1">
          <mxGeometry x="260" y="-824" width="80" height="80" as="geometry" />
        </mxCell>
        <mxCell id="GBJZiCLwSqrYyyE4BXPx-77" style="edgeStyle=orthogonalEdgeStyle;rounded=0;orthogonalLoop=1;jettySize=auto;html=1;fontFamily=Helvetica;fontSize=12;fontColor=#000000;endArrow=none;comic=0;endFill=0;startFill=1;" parent="1" source="GBJZiCLwSqrYyyE4BXPx-79" target="GBJZiCLwSqrYyyE4BXPx-80" edge="1">
          <mxGeometry relative="1" as="geometry" />
        </mxCell>
        <mxCell id="GBJZiCLwSqrYyyE4BXPx-78" value="" style="edgeStyle=orthogonalEdgeStyle;rounded=0;orthogonalLoop=1;jettySize=auto;html=1;fontFamily=Helvetica;fontSize=12;fontColor=#000000;endArrow=none;comic=0;endFill=0;startFill=1;" parent="1" source="GBJZiCLwSqrYyyE4BXPx-79" target="GBJZiCLwSqrYyyE4BXPx-81" edge="1">
          <mxGeometry relative="1" as="geometry" />
        </mxCell>
        <mxCell id="GBJZiCLwSqrYyyE4BXPx-228" style="edgeStyle=orthogonalEdgeStyle;rounded=0;orthogonalLoop=1;jettySize=auto;html=1;entryX=0;entryY=0.5;entryDx=0;entryDy=0;fontSize=12;endArrow=none;fontColor=#000000;comic=0;endFill=0;startFill=1;" parent="1" source="GBJZiCLwSqrYyyE4BXPx-79" target="GBJZiCLwSqrYyyE4BXPx-76" edge="1">
          <mxGeometry relative="1" as="geometry" />
        </mxCell>
        <mxCell id="GBJZiCLwSqrYyyE4BXPx-79" value="Login" style="whiteSpace=wrap;html=1;rounded=1;arcSize=10;" parent="1" vertex="1">
          <mxGeometry x="50" y="-814" width="120" height="60" as="geometry" />
        </mxCell>
        <mxCell id="GBJZiCLwSqrYyyE4BXPx-80" value="username" style="ellipse;whiteSpace=wrap;html=1;rounded=1;arcSize=10;fillColor=#000000;fontColor=#FFFFFF;strokeColor=#FFFFFF;" parent="1" vertex="1">
          <mxGeometry x="70" y="-959" width="80" height="80" as="geometry" />
        </mxCell>
        <mxCell id="GBJZiCLwSqrYyyE4BXPx-81" value="password" style="ellipse;whiteSpace=wrap;html=1;rounded=1;arcSize=10;" parent="1" vertex="1">
          <mxGeometry x="70" y="-684" width="80" height="80" as="geometry" />
        </mxCell>
        <mxCell id="GBJZiCLwSqrYyyE4BXPx-82" value="(1,1)" style="text;strokeColor=none;fillColor=none;spacingLeft=4;spacingRight=4;overflow=hidden;rotatable=0;points=[[0,0.5],[1,0.5]];portConstraint=eastwest;fontSize=12;fontFamily=Helvetica;fontColor=#000000;" parent="1" vertex="1">
          <mxGeometry x="180" y="-809" width="40" height="30" as="geometry" />
        </mxCell>
        <mxCell id="GBJZiCLwSqrYyyE4BXPx-83" value="(0,1)" style="text;strokeColor=none;fillColor=none;spacingLeft=4;spacingRight=4;overflow=hidden;rotatable=0;points=[[0,0.5],[1,0.5]];portConstraint=eastwest;fontSize=12;fontFamily=Helvetica;fontColor=#000000;" parent="1" vertex="1">
          <mxGeometry x="370" y="-809" width="40" height="30" as="geometry" />
        </mxCell>
        <mxCell id="GBJZiCLwSqrYyyE4BXPx-89" value="Purchase" style="rhombus;whiteSpace=wrap;html=1;rounded=1;arcSize=10;strokeColor=default;fontFamily=Helvetica;fontSize=12;fontColor=#000000;fillColor=#FFFFFF;" parent="1" vertex="1">
          <mxGeometry x="1060" y="121" width="80" height="80" as="geometry" />
        </mxCell>
        <mxCell id="GBJZiCLwSqrYyyE4BXPx-90" value="(0,1)" style="text;strokeColor=none;fillColor=none;spacingLeft=4;spacingRight=4;overflow=hidden;rotatable=0;points=[[0,0.5],[1,0.5]];portConstraint=eastwest;fontSize=12;fontFamily=Helvetica;fontColor=#000000;" parent="1" vertex="1">
          <mxGeometry x="1430" y="-329" width="40" height="30" as="geometry" />
        </mxCell>
        <mxCell id="GBJZiCLwSqrYyyE4BXPx-97" value="Sale" style="rhombus;whiteSpace=wrap;html=1;rounded=1;arcSize=10;strokeColor=default;fontFamily=Helvetica;fontSize=12;fontColor=#000000;fillColor=#FFFFFF;" parent="1" vertex="1">
          <mxGeometry x="1365" y="-814.5" width="80" height="80" as="geometry" />
        </mxCell>
        <mxCell id="GBJZiCLwSqrYyyE4BXPx-98" value="(1,1)" style="text;strokeColor=none;fillColor=none;spacingLeft=4;spacingRight=4;overflow=hidden;rotatable=0;points=[[0,0.5],[1,0.5]];portConstraint=eastwest;fontSize=12;fontFamily=Helvetica;fontColor=#000000;" parent="1" vertex="1">
          <mxGeometry x="1470" y="-634" width="40" height="30" as="geometry" />
        </mxCell>
        <mxCell id="GBJZiCLwSqrYyyE4BXPx-260" style="edgeStyle=orthogonalEdgeStyle;shape=connector;rounded=0;orthogonalLoop=1;jettySize=auto;html=1;entryX=0.5;entryY=0;entryDx=0;entryDy=0;labelBackgroundColor=default;strokeColor=default;fontFamily=Helvetica;fontSize=12;fontColor=#000000;startFill=1;endArrow=none;endFill=0;" parent="1" source="GBJZiCLwSqrYyyE4BXPx-117" target="GBJZiCLwSqrYyyE4BXPx-34" edge="1">
          <mxGeometry relative="1" as="geometry" />
        </mxCell>
        <mxCell id="GBJZiCLwSqrYyyE4BXPx-117" value="country" style="ellipse;whiteSpace=wrap;html=1;rounded=1;arcSize=10;strokeColor=default;fontFamily=Helvetica;fontSize=12;fontColor=#000000;fillColor=#FFFFFF;" parent="1" vertex="1">
          <mxGeometry x="1100" y="-989" width="80" height="80" as="geometry" />
        </mxCell>
        <mxCell id="GBJZiCLwSqrYyyE4BXPx-125" value="sector" style="ellipse;whiteSpace=wrap;html=1;rounded=1;arcSize=10;" parent="1" vertex="1">
          <mxGeometry x="1365" y="-529" width="80" height="80" as="geometry" />
        </mxCell>
        <mxCell id="GBJZiCLwSqrYyyE4BXPx-129" style="edgeStyle=orthogonalEdgeStyle;rounded=0;orthogonalLoop=1;jettySize=auto;html=1;" parent="1" source="GBJZiCLwSqrYyyE4BXPx-128" target="GBJZiCLwSqrYyyE4BXPx-10" edge="1">
          <mxGeometry relative="1" as="geometry">
            <mxPoint x="490" y="-749" as="targetPoint" />
            <Array as="points">
              <mxPoint x="490" y="-379" />
              <mxPoint x="490" y="-379" />
            </Array>
          </mxGeometry>
        </mxCell>
        <mxCell id="GBJZiCLwSqrYyyE4BXPx-137" value="" style="edgeStyle=orthogonalEdgeStyle;rounded=0;orthogonalLoop=1;jettySize=auto;html=1;entryX=0.5;entryY=0;entryDx=0;entryDy=0;endArrow=none;fontSize=12;fontColor=#000000;comic=0;endFill=0;startFill=1;" parent="1" source="GBJZiCLwSqrYyyE4BXPx-128" target="GBJZiCLwSqrYyyE4BXPx-132" edge="1">
          <mxGeometry relative="1" as="geometry">
            <mxPoint x="495" y="-129" as="targetPoint" />
          </mxGeometry>
        </mxCell>
        <mxCell id="GBJZiCLwSqrYyyE4BXPx-141" style="edgeStyle=orthogonalEdgeStyle;rounded=0;orthogonalLoop=1;jettySize=auto;html=1;entryX=0.5;entryY=0;entryDx=0;entryDy=0;endArrow=none;fontSize=12;fontColor=#000000;comic=0;endFill=0;startFill=1;" parent="1" source="GBJZiCLwSqrYyyE4BXPx-128" target="GBJZiCLwSqrYyyE4BXPx-139" edge="1">
          <mxGeometry relative="1" as="geometry" />
        </mxCell>
        <mxCell id="GBJZiCLwSqrYyyE4BXPx-195" style="edgeStyle=orthogonalEdgeStyle;rounded=0;orthogonalLoop=1;jettySize=auto;html=1;entryX=0;entryY=0.5;entryDx=0;entryDy=0;fontSize=12;endArrow=none;fontColor=#000000;comic=0;endFill=0;startFill=1;" parent="1" source="GBJZiCLwSqrYyyE4BXPx-128" target="GBJZiCLwSqrYyyE4BXPx-166" edge="1">
          <mxGeometry relative="1" as="geometry">
            <Array as="points">
              <mxPoint x="450" y="-269" />
              <mxPoint x="250" y="-269" />
              <mxPoint x="250" y="-219" />
            </Array>
          </mxGeometry>
        </mxCell>
        <mxCell id="GBJZiCLwSqrYyyE4BXPx-196" style="edgeStyle=orthogonalEdgeStyle;rounded=0;orthogonalLoop=1;jettySize=auto;html=1;entryX=1;entryY=0.5;entryDx=0;entryDy=0;fontSize=12;endArrow=none;fontColor=#000000;comic=0;endFill=0;startFill=1;" parent="1" source="GBJZiCLwSqrYyyE4BXPx-128" target="GBJZiCLwSqrYyyE4BXPx-166" edge="1">
          <mxGeometry relative="1" as="geometry">
            <Array as="points">
              <mxPoint x="360" y="-219" />
            </Array>
          </mxGeometry>
        </mxCell>
        <mxCell id="GBJZiCLwSqrYyyE4BXPx-209" style="edgeStyle=orthogonalEdgeStyle;rounded=0;orthogonalLoop=1;jettySize=auto;html=1;fontSize=12;endArrow=none;fontColor=#000000;comic=0;endFill=0;startFill=1;" parent="1" source="GBJZiCLwSqrYyyE4BXPx-128" target="GBJZiCLwSqrYyyE4BXPx-161" edge="1">
          <mxGeometry relative="1" as="geometry">
            <Array as="points">
              <mxPoint x="655" y="-210" />
            </Array>
          </mxGeometry>
        </mxCell>
        <mxCell id="UaTZyN6djczCSHfW7MGq-18" style="edgeStyle=orthogonalEdgeStyle;rounded=0;orthogonalLoop=1;jettySize=auto;html=1;endArrow=none;fontSize=12;fontColor=#000000;comic=0;endFill=0;startFill=1;entryX=0;entryY=0.5;entryDx=0;entryDy=0;" parent="1" source="GBJZiCLwSqrYyyE4BXPx-128" target="UaTZyN6djczCSHfW7MGq-16" edge="1">
          <mxGeometry relative="1" as="geometry">
            <mxPoint x="780" y="-210" as="targetPoint" />
            <Array as="points" />
          </mxGeometry>
        </mxCell>
        <mxCell id="2pp6Yz22NdL-EP-bpS55-2" style="edgeStyle=orthogonalEdgeStyle;rounded=0;orthogonalLoop=1;jettySize=auto;html=1;entryX=0.5;entryY=1;entryDx=0;entryDy=0;" parent="1" source="GBJZiCLwSqrYyyE4BXPx-128" target="2pp6Yz22NdL-EP-bpS55-3" edge="1">
          <mxGeometry relative="1" as="geometry">
            <mxPoint x="540" y="-290" as="targetPoint" />
            <Array as="points">
              <mxPoint x="520" y="-279" />
              <mxPoint x="555" y="-279" />
            </Array>
          </mxGeometry>
        </mxCell>
        <mxCell id="GBJZiCLwSqrYyyE4BXPx-128" value="Biathlete" style="whiteSpace=wrap;html=1;rounded=1;arcSize=10;" parent="1" vertex="1">
          <mxGeometry x="430" y="-259" width="120" height="60" as="geometry" />
        </mxCell>
        <mxCell id="GBJZiCLwSqrYyyE4BXPx-132" value="biathleteID" style="ellipse;whiteSpace=wrap;html=1;rounded=1;arcSize=10;fillColor=#000000;fontColor=#FFFFFF;strokeColor=#FFFFFF;" parent="1" vertex="1">
          <mxGeometry x="384" y="-89" width="80" height="80" as="geometry" />
        </mxCell>
        <mxCell id="GBJZiCLwSqrYyyE4BXPx-134" value="sex" style="ellipse;whiteSpace=wrap;html=1;rounded=1;arcSize=10;" parent="1" vertex="1">
          <mxGeometry x="450" y="-1090" width="80" height="80" as="geometry" />
        </mxCell>
        <mxCell id="GBJZiCLwSqrYyyE4BXPx-150" style="edgeStyle=orthogonalEdgeStyle;rounded=0;orthogonalLoop=1;jettySize=auto;html=1;entryX=0.5;entryY=0;entryDx=0;entryDy=0;endArrow=none;fontSize=12;fontColor=#000000;comic=0;endFill=0;startFill=1;" parent="1" source="GBJZiCLwSqrYyyE4BXPx-139" target="GBJZiCLwSqrYyyE4BXPx-149" edge="1">
          <mxGeometry relative="1" as="geometry" />
        </mxCell>
        <mxCell id="GBJZiCLwSqrYyyE4BXPx-152" style="edgeStyle=orthogonalEdgeStyle;rounded=0;orthogonalLoop=1;jettySize=auto;html=1;entryX=0.5;entryY=0;entryDx=0;entryDy=0;endArrow=none;fontSize=12;fontColor=#000000;comic=0;endFill=0;startFill=1;" parent="1" source="GBJZiCLwSqrYyyE4BXPx-139" target="GBJZiCLwSqrYyyE4BXPx-151" edge="1">
          <mxGeometry relative="1" as="geometry" />
        </mxCell>
        <mxCell id="GBJZiCLwSqrYyyE4BXPx-139" value="stats" style="ellipse;whiteSpace=wrap;html=1;rounded=1;arcSize=10;" parent="1" vertex="1">
          <mxGeometry x="500" y="-89" width="80" height="80" as="geometry" />
        </mxCell>
        <mxCell id="GBJZiCLwSqrYyyE4BXPx-149" value="average-speed" style="ellipse;whiteSpace=wrap;html=1;rounded=1;arcSize=10;" parent="1" vertex="1">
          <mxGeometry x="450" y="30" width="80" height="80" as="geometry" />
        </mxCell>
        <mxCell id="GBJZiCLwSqrYyyE4BXPx-151" value="average-shooting" style="ellipse;whiteSpace=wrap;html=1;rounded=1;arcSize=10;" parent="1" vertex="1">
          <mxGeometry x="540" y="30" width="80" height="80" as="geometry" />
        </mxCell>
        <mxCell id="GBJZiCLwSqrYyyE4BXPx-161" value="social-media" style="ellipse;whiteSpace=wrap;html=1;rounded=1;arcSize=10;" parent="1" vertex="1">
          <mxGeometry x="615" y="-89" width="80" height="80" as="geometry" />
        </mxCell>
        <mxCell id="GBJZiCLwSqrYyyE4BXPx-166" value="Teammate" style="rhombus;whiteSpace=wrap;html=1;rounded=1;arcSize=10;fontSize=14;" parent="1" vertex="1">
          <mxGeometry x="280" y="-259" width="80" height="80" as="geometry" />
        </mxCell>
        <mxCell id="GBJZiCLwSqrYyyE4BXPx-169" value="(0,N)" style="text;strokeColor=none;fillColor=none;spacingLeft=4;spacingRight=4;overflow=hidden;rotatable=0;points=[[0,0.5],[1,0.5]];portConstraint=eastwest;fontSize=12;fontFamily=Helvetica;fontColor=#000000;" parent="1" vertex="1">
          <mxGeometry x="390" y="-209" width="40" height="30" as="geometry" />
        </mxCell>
        <mxCell id="GBJZiCLwSqrYyyE4BXPx-173" value="Holder" style="rhombus;whiteSpace=wrap;html=1;rounded=1;arcSize=10;" parent="1" vertex="1">
          <mxGeometry x="1000" y="-650" width="80" height="80" as="geometry" />
        </mxCell>
        <mxCell id="GBJZiCLwSqrYyyE4BXPx-177" value="(1,1)" style="text;strokeColor=none;fillColor=none;spacingLeft=4;spacingRight=4;overflow=hidden;rotatable=0;points=[[0,0.5],[1,0.5]];portConstraint=eastwest;fontSize=12;fontFamily=Helvetica;fontColor=#000000;" parent="1" vertex="1">
          <mxGeometry x="1050" y="-429" width="40" height="30" as="geometry" />
        </mxCell>
        <mxCell id="GBJZiCLwSqrYyyE4BXPx-263" style="edgeStyle=orthogonalEdgeStyle;shape=connector;rounded=0;orthogonalLoop=1;jettySize=auto;html=1;entryX=0.5;entryY=0;entryDx=0;entryDy=0;labelBackgroundColor=default;strokeColor=default;fontFamily=Helvetica;fontSize=12;fontColor=#000000;startFill=1;endArrow=none;endFill=0;" parent="1" source="GBJZiCLwSqrYyyE4BXPx-192" target="GBJZiCLwSqrYyyE4BXPx-34" edge="1">
          <mxGeometry relative="1" as="geometry" />
        </mxCell>
        <mxCell id="GBJZiCLwSqrYyyE4BXPx-192" value="name" style="ellipse;whiteSpace=wrap;html=1;rounded=1;arcSize=10;fillColor=#FFFFFF;fontColor=#000000;strokeColor=default;" parent="1" vertex="1">
          <mxGeometry x="900" y="-989" width="80" height="80" as="geometry" />
        </mxCell>
        <mxCell id="GBJZiCLwSqrYyyE4BXPx-198" value="(0,1)" style="text;strokeColor=none;fillColor=none;spacingLeft=4;spacingRight=4;overflow=hidden;rotatable=0;points=[[0,0.5],[1,0.5]];portConstraint=eastwest;fontSize=12;fontFamily=Helvetica;fontColor=#000000;" parent="1" vertex="1">
          <mxGeometry x="410" y="-299" width="40" height="30" as="geometry" />
        </mxCell>
        <mxCell id="GBJZiCLwSqrYyyE4BXPx-208" value="(0,N)" style="text;strokeColor=none;fillColor=none;spacingLeft=4;spacingRight=4;overflow=hidden;rotatable=0;points=[[0,0.5],[1,0.5]];portConstraint=eastwest;fontSize=12;fontFamily=Helvetica;fontColor=#000000;" parent="1" vertex="1">
          <mxGeometry x="560" y="-209" width="40" height="30" as="geometry" />
        </mxCell>
        <mxCell id="GBJZiCLwSqrYyyE4BXPx-212" value="(1,N)" style="text;strokeColor=none;fillColor=none;spacingLeft=4;spacingRight=4;overflow=hidden;rotatable=0;points=[[0,0.5],[1,0.5]];portConstraint=eastwest;fontSize=12;fontFamily=Helvetica;fontColor=#000000;" parent="1" vertex="1">
          <mxGeometry x="40" y="-179" width="40" height="30" as="geometry" />
        </mxCell>
        <mxCell id="GBJZiCLwSqrYyyE4BXPx-215" value="(0,N)" style="text;strokeColor=none;fillColor=none;spacingLeft=4;spacingRight=4;overflow=hidden;rotatable=0;points=[[0,0.5],[1,0.5]];portConstraint=eastwest;fontSize=12;fontFamily=Helvetica;fontColor=#000000;labelBackgroundColor=default;endArrow=none;align=left;verticalAlign=top;rounded=0;comic=0;endFill=0;startFill=1;" parent="1" vertex="1">
          <mxGeometry x="1040" y="-744" width="40" height="30" as="geometry" />
        </mxCell>
        <mxCell id="GBJZiCLwSqrYyyE4BXPx-218" value="type" style="ellipse;whiteSpace=wrap;html=1;rounded=1;arcSize=10;" parent="1" vertex="1">
          <mxGeometry x="1140" y="-324" width="80" height="80" as="geometry" />
        </mxCell>
        <mxCell id="GBJZiCLwSqrYyyE4BXPx-230" value="time" style="ellipse;whiteSpace=wrap;html=1;rounded=1;arcSize=10;" parent="1" vertex="1">
          <mxGeometry x="850" y="-374" width="80" height="80" as="geometry" />
        </mxCell>
        <mxCell id="GBJZiCLwSqrYyyE4BXPx-237" value="(1,N)" style="text;strokeColor=none;fillColor=none;spacingLeft=4;spacingRight=4;overflow=hidden;rotatable=0;points=[[0,0.5],[1,0.5]];portConstraint=eastwest;fontSize=12;fontFamily=Helvetica;fontColor=#000000;" parent="1" vertex="1">
          <mxGeometry x="1150" y="-770" width="40" height="30" as="geometry" />
        </mxCell>
        <mxCell id="GBJZiCLwSqrYyyE4BXPx-242" value="ticketID" style="ellipse;whiteSpace=wrap;html=1;rounded=1;arcSize=10;fillColor=#000000;fontColor=#FFFFFF;strokeColor=#FFFFFF;" parent="1" vertex="1">
          <mxGeometry x="1280" y="-419" width="80" height="80" as="geometry" />
        </mxCell>
        <mxCell id="GBJZiCLwSqrYyyE4BXPx-257" value="" style="shape=requiredInterface;html=1;verticalLabelPosition=bottom;sketch=0;fontSize=14;rotation=-91;" parent="1" vertex="1">
          <mxGeometry x="1021.5500000000001" y="-1010" width="50" height="280" as="geometry" />
        </mxCell>
        <mxCell id="GBJZiCLwSqrYyyE4BXPx-258" value="" style="ellipse;whiteSpace=wrap;html=1;fontSize=12;sketch=0;fillColor=#000000;strokeColor=#FFFFFF;fontColor=#FFFFFF;rounded=1;arcSize=10;" parent="1" vertex="1">
          <mxGeometry x="1180" y="-854" width="30" height="30" as="geometry" />
        </mxCell>
        <mxCell id="GBJZiCLwSqrYyyE4BXPx-220" value="city" style="ellipse;whiteSpace=wrap;html=1;rounded=1;arcSize=10;fillColor=#FFFFFF;fontColor=#000000;strokeColor=default;" parent="1" vertex="1">
          <mxGeometry x="1000" y="-989" width="80" height="80" as="geometry" />
        </mxCell>
        <mxCell id="GBJZiCLwSqrYyyE4BXPx-265" style="edgeStyle=orthogonalEdgeStyle;shape=connector;rounded=0;orthogonalLoop=1;jettySize=auto;html=1;entryX=1;entryY=0.5;entryDx=0;entryDy=0;labelBackgroundColor=default;strokeColor=default;fontFamily=Helvetica;fontSize=12;fontColor=#000000;startFill=1;endArrow=none;endFill=0;" parent="1" source="GBJZiCLwSqrYyyE4BXPx-264" target="GBJZiCLwSqrYyyE4BXPx-70" edge="1">
          <mxGeometry relative="1" as="geometry" />
        </mxCell>
        <mxCell id="GBJZiCLwSqrYyyE4BXPx-264" value="transactionID" style="ellipse;whiteSpace=wrap;html=1;rounded=1;arcSize=10;fillColor=#000000;fontColor=#FFFFFF;strokeColor=#FFFFFF;" parent="1" vertex="1">
          <mxGeometry x="1574" y="-419" width="80" height="80" as="geometry" />
        </mxCell>
        <mxCell id="QPW3rp8O-pwUNaFN2-2h-5" style="edgeStyle=orthogonalEdgeStyle;rounded=0;orthogonalLoop=1;jettySize=auto;html=1;entryX=0.5;entryY=0;entryDx=0;entryDy=0;endArrow=none;fontSize=12;fontColor=#000000;comic=0;endFill=0;startFill=1;" parent="1" source="QPW3rp8O-pwUNaFN2-2h-3" target="GBJZiCLwSqrYyyE4BXPx-25" edge="1">
          <mxGeometry relative="1" as="geometry" />
        </mxCell>
        <mxCell id="QPW3rp8O-pwUNaFN2-2h-3" value="Work" style="rhombus;whiteSpace=wrap;html=1;rounded=1;arcSize=10;" parent="1" vertex="1">
          <mxGeometry x="780" y="-814.5" width="80" height="80" as="geometry" />
        </mxCell>
        <mxCell id="QPW3rp8O-pwUNaFN2-2h-6" value="(1,N)" style="text;strokeColor=none;fillColor=none;spacingLeft=4;spacingRight=4;overflow=hidden;rotatable=0;points=[[0,0.5],[1,0.5]];portConstraint=eastwest;fontSize=12;fontFamily=Helvetica;fontColor=#000000;" parent="1" vertex="1">
          <mxGeometry x="695" y="-640" width="40" height="30" as="geometry" />
        </mxCell>
        <mxCell id="QPW3rp8O-pwUNaFN2-2h-7" value="(1,N)" style="text;strokeColor=none;fillColor=none;spacingLeft=4;spacingRight=4;overflow=hidden;rotatable=0;points=[[0,0.5],[1,0.5]];portConstraint=eastwest;fontSize=12;fontFamily=Helvetica;fontColor=#000000;" parent="1" vertex="1">
          <mxGeometry x="920" y="-770" width="40" height="30" as="geometry" />
        </mxCell>
        <mxCell id="QPW3rp8O-pwUNaFN2-2h-8" value="(1,N)" style="text;strokeColor=none;fillColor=none;spacingLeft=4;spacingRight=4;overflow=hidden;rotatable=0;points=[[0,0.5],[1,0.5]];portConstraint=eastwest;fontSize=12;fontFamily=Helvetica;fontColor=#000000;" parent="1" vertex="1">
          <mxGeometry x="400" y="-885" width="40" height="30" as="geometry" />
        </mxCell>
        <mxCell id="UaTZyN6djczCSHfW7MGq-11" value="" style="edgeStyle=orthogonalEdgeStyle;rounded=0;orthogonalLoop=1;jettySize=auto;html=1;endArrow=none;fontSize=12;fontColor=#000000;comic=0;endFill=0;startFill=1;" parent="1" source="UaTZyN6djczCSHfW7MGq-2" target="UaTZyN6djczCSHfW7MGq-10" edge="1">
          <mxGeometry relative="1" as="geometry" />
        </mxCell>
        <mxCell id="UaTZyN6djczCSHfW7MGq-27" style="edgeStyle=orthogonalEdgeStyle;shape=connector;rounded=0;comic=0;orthogonalLoop=1;jettySize=auto;html=1;entryX=0.5;entryY=0;entryDx=0;entryDy=0;labelBackgroundColor=default;strokeColor=default;fontFamily=Helvetica;fontSize=12;fontColor=#000000;startFill=1;endArrow=none;endFill=0;" parent="1" source="UaTZyN6djczCSHfW7MGq-2" target="UaTZyN6djczCSHfW7MGq-23" edge="1">
          <mxGeometry relative="1" as="geometry" />
        </mxCell>
        <mxCell id="UaTZyN6djczCSHfW7MGq-2" value="leaderboard" style="whiteSpace=wrap;html=1;rounded=1;arcSize=10;" parent="1" vertex="1">
          <mxGeometry x="980" y="-120" width="120" height="60" as="geometry" />
        </mxCell>
        <mxCell id="UaTZyN6djczCSHfW7MGq-6" style="edgeStyle=orthogonalEdgeStyle;rounded=0;orthogonalLoop=1;jettySize=auto;html=1;entryX=0.5;entryY=0;entryDx=0;entryDy=0;endArrow=none;fontSize=12;fontColor=#000000;comic=0;endFill=0;startFill=1;" parent="1" source="UaTZyN6djczCSHfW7MGq-3" target="UaTZyN6djczCSHfW7MGq-2" edge="1">
          <mxGeometry relative="1" as="geometry" />
        </mxCell>
        <mxCell id="UaTZyN6djczCSHfW7MGq-3" value="Results" style="rhombus;whiteSpace=wrap;html=1;rounded=1;arcSize=10;" parent="1" vertex="1">
          <mxGeometry x="1000" y="-269" width="80" height="80" as="geometry" />
        </mxCell>
        <mxCell id="UaTZyN6djczCSHfW7MGq-8" value="(0,N)" style="text;strokeColor=none;fillColor=none;spacingLeft=4;spacingRight=4;overflow=hidden;rotatable=0;points=[[0,0.5],[1,0.5]];portConstraint=eastwest;fontSize=12;fontFamily=Helvetica;fontColor=#000000;" parent="1" vertex="1">
          <mxGeometry x="595" y="-259" width="40" height="30" as="geometry" />
        </mxCell>
        <mxCell id="UaTZyN6djczCSHfW7MGq-9" value="(1,1)" style="text;strokeColor=none;fillColor=none;spacingLeft=4;spacingRight=4;overflow=hidden;rotatable=0;points=[[0,0.5],[1,0.5]];portConstraint=eastwest;fontSize=12;fontFamily=Helvetica;fontColor=#000000;" parent="1" vertex="1">
          <mxGeometry x="1040" y="-329" width="40" height="30" as="geometry" />
        </mxCell>
        <mxCell id="UaTZyN6djczCSHfW7MGq-10" value="place" style="ellipse;whiteSpace=wrap;html=1;rounded=1;arcSize=10;fillColor=default;strokeColor=default;fontColor=default;" parent="1" vertex="1">
          <mxGeometry x="1140" y="-130" width="80" height="80" as="geometry" />
        </mxCell>
        <mxCell id="UaTZyN6djczCSHfW7MGq-12" value="" style="shape=requiredInterface;html=1;verticalLabelPosition=bottom;sketch=0;fontSize=14;rotation=-90;" parent="1" vertex="1">
          <mxGeometry x="980" y="-219" width="94.22" height="220" as="geometry" />
        </mxCell>
        <mxCell id="UaTZyN6djczCSHfW7MGq-13" value="" style="ellipse;whiteSpace=wrap;html=1;fontSize=12;sketch=0;fillColor=#000000;strokeColor=#FFFFFF;fontColor=#FFFFFF;rounded=1;arcSize=10;" parent="1" vertex="1">
          <mxGeometry x="900" y="-80" width="30" height="30" as="geometry" />
        </mxCell>
        <mxCell id="UaTZyN6djczCSHfW7MGq-14" value="competitionID" style="ellipse;whiteSpace=wrap;html=1;rounded=1;arcSize=10;fillColor=#000000;strokeColor=#FFFFFF;fontColor=#FFFFFF;" parent="1" vertex="1">
          <mxGeometry x="1140" y="-509" width="80" height="80" as="geometry" />
        </mxCell>
        <mxCell id="UaTZyN6djczCSHfW7MGq-19" style="edgeStyle=orthogonalEdgeStyle;rounded=0;orthogonalLoop=1;jettySize=auto;html=1;entryX=0;entryY=0.5;entryDx=0;entryDy=0;endArrow=none;fontSize=12;fontColor=#000000;comic=0;endFill=0;startFill=1;" parent="1" source="UaTZyN6djczCSHfW7MGq-16" target="UaTZyN6djczCSHfW7MGq-2" edge="1">
          <mxGeometry relative="1" as="geometry">
            <Array as="points">
              <mxPoint x="840" y="-90" />
            </Array>
          </mxGeometry>
        </mxCell>
        <mxCell id="UaTZyN6djczCSHfW7MGq-16" value="Finish" style="rhombus;whiteSpace=wrap;html=1;rounded=1;arcSize=10;" parent="1" vertex="1">
          <mxGeometry x="800" y="-269" width="80" height="80" as="geometry" />
        </mxCell>
        <mxCell id="UaTZyN6djczCSHfW7MGq-20" value="(0,N)" style="text;strokeColor=none;fillColor=none;spacingLeft=4;spacingRight=4;overflow=hidden;rotatable=0;points=[[0,0.5],[1,0.5]];portConstraint=eastwest;fontSize=12;fontFamily=Helvetica;fontColor=#000000;" parent="1" vertex="1">
          <mxGeometry x="870" y="-114" width="40" height="30" as="geometry" />
        </mxCell>
        <mxCell id="UaTZyN6djczCSHfW7MGq-21" value="(0,N)" style="text;strokeColor=none;fillColor=none;spacingLeft=4;spacingRight=4;overflow=hidden;rotatable=0;points=[[0,0.5],[1,0.5]];portConstraint=eastwest;fontSize=12;fontFamily=Helvetica;fontColor=#000000;" parent="1" vertex="1">
          <mxGeometry x="1007.11" y="-190" width="40" height="30" as="geometry" />
        </mxCell>
        <mxCell id="UaTZyN6djczCSHfW7MGq-23" value="recordID" style="ellipse;whiteSpace=wrap;html=1;fontSize=12;sketch=0;fontFamily=Helvetica;fontColor=#FFFFFF;fillColor=#000000;strokeColor=#FFFFFF;rounded=1;arcSize=10;" parent="1" vertex="1">
          <mxGeometry x="1000" y="-20" width="80" height="80" as="geometry" />
        </mxCell>
        <mxCell id="2pp6Yz22NdL-EP-bpS55-3" value="points" style="ellipse;whiteSpace=wrap;html=1;rounded=1;arcSize=10;fillColor=default;fontColor=default;strokeColor=default;" parent="1" vertex="1">
          <mxGeometry x="515" y="-374" width="80" height="80" as="geometry" />
        </mxCell>
      </root>
    </mxGraphModel>
  </diagram>
</mxfile>
